<svg xmlns="http://www.w3.org/2000/svg" viewBox="0 0 612 792"><title>Rama de café (izquierda)</title><defs><symbol id="hoja" viewBox="-2 -26 104 52" overflow="visible">
<path d="M0,0 C18,-24 66,-26 100,0 C66,26 18,24 0,0Z" fill="none" stroke="currentColor" stroke-width="2.2" stroke-linejoin="round"/>
<path d="M2,0 Q50,-3 98,0" fill="none" stroke="currentColor" stroke-width="1.6"/>
<g fill="none" stroke="currentColor" stroke-width="1.1" stroke-linecap="round">
<path d="M18,-1 Q24,-10 30,-15"/><path d="M34,-2 Q41,-12 48,-17"/><path d="M50,-2 Q58,-11 65,-15"/><path d="M66,-2 Q73,-8 80,-11"/>
<path d="M18,0 Q24,9 30,14"/><path d="M34,1 Q41,11 48,16"/><path d="M50,1 Q58,10 65,14"/><path d="M66,1 Q73,7 80,10"/></g></symbol>
<symbol id="cereza" viewBox="-12 -12 24 24" overflow="visible">
<circle r="9" fill="none" stroke="currentColor" stroke-width="2"/>
<path d="M-3,-6 Q-6,-2 -5,3" fill="none" stroke="currentColor" stroke-width="1.2" stroke-linecap="round"/>
<circle cx="2.5" cy="-1" r="1.6" fill="currentColor"/></symbol></defs><g transform="translate(612,0) scale(-1,1)">
<g color="#D4A55A" opacity="0.25"><path d="M40,790 C120,560 420,420 560,40" fill="none" stroke="currentColor" stroke-width="3.8" stroke-linecap="round"/>
<use href="#hoja" width="107" height="54" y="-27" transform="translate(63.2,736.4) rotate(-99.8)"/>
<use href="#hoja" width="124" height="62" y="-31" transform="translate(96.7,680.8) rotate(-21.2)"/>
<use href="#hoja" width="138" height="69" y="-34" transform="translate(137.3,626.8) rotate(-93.3)"/>
<use href="#cereza" width="30" height="30" x="-15" y="-15" transform="translate(148.5,632.2)"/>
<use href="#cereza" width="30" height="30" x="-15" y="-15" transform="translate(125.1,624.0)"/>
<use href="#cereza" width="30" height="30" x="-15" y="-15" transform="translate(129.0,636.1)"/>
<use href="#cereza" width="30" height="30" x="-15" y="-15" transform="translate(149.0,631.2)"/>
<use href="#hoja" width="148" height="74" y="-37" transform="translate(183.5,573.0) rotate(-8.0)"/>
<use href="#hoja" width="154" height="77" y="-39" transform="translate(233.8,518.3) rotate(-79.6)"/>
<use href="#cereza" width="30" height="30" x="-15" y="-15" transform="translate(222.4,523.3)"/>
<use href="#cereza" width="30" height="30" x="-15" y="-15" transform="translate(245.1,523.6)"/>
<use href="#cereza" width="30" height="30" x="-15" y="-15" transform="translate(244.4,525.0)"/>
<use href="#cereza" width="30" height="30" x="-15" y="-15" transform="translate(222.7,524.0)"/>
<use href="#hoja" width="156" height="78" y="-39" transform="translate(286.7,461.2) rotate(-2.3)"/>
<use href="#hoja" width="153" height="76" y="-38" transform="translate(340.8,400.5) rotate(-83.3)"/>
<use href="#cereza" width="30" height="30" x="-15" y="-15" transform="translate(342.9,412.8)"/>
<use href="#cereza" width="30" height="30" x="-15" y="-15" transform="translate(332.1,391.5)"/>
<use href="#cereza" width="30" height="30" x="-15" y="-15" transform="translate(352.6,396.4)"/>
<use href="#cereza" width="30" height="30" x="-15" y="-15" transform="translate(329.7,394.7)"/>
<use href="#hoja" width="145" height="72" y="-36" transform="translate(394.4,334.8) rotate(-14.0)"/>
<use href="#hoja" width="133" height="67" y="-33" transform="translate(446.1,262.9) rotate(-103.9)"/>
<use href="#cereza" width="30" height="30" x="-15" y="-15" transform="translate(458.1,266.5)"/>
<use href="#cereza" width="30" height="30" x="-15" y="-15" transform="translate(454.0,253.2)"/>
<use href="#cereza" width="30" height="30" x="-15" y="-15" transform="translate(443.0,275.1)"/>
<use href="#cereza" width="30" height="30" x="-15" y="-15" transform="translate(453.8,272.8)"/>
<use href="#hoja" width="118" height="59" y="-30" transform="translate(494.4,183.5) rotate(-27.2)"/>
<use href="#hoja" width="101" height="51" y="-25" transform="translate(537.8,95.2) rotate(-103.4)"/>
<path d="M300,520 C380,470 470,470 600,430" fill="none" stroke="currentColor" stroke-width="2.7" stroke-linecap="round"/>
<use href="#hoja" width="93" height="47" y="-23" transform="translate(349.4,495.3) rotate(-66.6)"/>
<use href="#cereza" width="22" height="22" x="-11" y="-11" transform="translate(353.2,503.4)"/>
<use href="#cereza" width="22" height="22" x="-11" y="-11" transform="translate(341.6,490.9)"/>
<use href="#cereza" width="22" height="22" x="-11" y="-11" transform="translate(343.7,488.4)"/>
<use href="#cereza" width="22" height="22" x="-11" y="-11" transform="translate(343.2,501.7)"/>
<use href="#hoja" width="109" height="55" y="-27" transform="translate(399.3,479.2) rotate(25.7)"/>
<use href="#hoja" width="111" height="56" y="-28" transform="translate(453.6,466.2) rotate(-45.4)"/>
<use href="#cereza" width="22" height="22" x="-11" y="-11" transform="translate(462.0,469.5)"/>
<use href="#cereza" width="22" height="22" x="-11" y="-11" transform="translate(456.1,474.9)"/>
<use href="#cereza" width="22" height="22" x="-11" y="-11" transform="translate(449.8,458.1)"/>
<use href="#cereza" width="22" height="22" x="-11" y="-11" transform="translate(445.5,470.2)"/>
<use href="#hoja" width="97" height="49" y="-24" transform="translate(513.7,452.9) rotate(24.0)"/>
<use href="#hoja" width="73" height="36" y="-18" transform="translate(580.8,435.7) rotate(-57.4)"/><path d="M190,640 C140,560 60,520 10,420" fill="none" stroke="currentColor" stroke-width="2.5" stroke-linecap="round"/>
<use href="#hoja" width="88" height="44" y="-22" transform="translate(156.9,596.0) rotate(-170.5)"/>
<use href="#cereza" width="20" height="20" x="-10" y="-10" transform="translate(154.3,604.1)"/>
<use href="#cereza" width="20" height="20" x="-10" y="-10" transform="translate(159.2,587.8)"/>
<use href="#cereza" width="20" height="20" x="-10" y="-10" transform="translate(154.2,587.9)"/>
<use href="#cereza" width="20" height="20" x="-10" y="-10" transform="translate(157.2,604.5)"/>
<use href="#hoja" width="103" height="52" y="-26" transform="translate(121.9,559.2) rotate(-93.9)"/>
<use href="#hoja" width="105" height="52" y="-26" transform="translate(85.4,522.7) rotate(-174.4)"/>
<use href="#cereza" width="20" height="20" x="-10" y="-10" transform="translate(91.4,516.7)"/>
<use href="#cereza" width="20" height="20" x="-10" y="-10" transform="translate(84.3,514.2)"/>
<use href="#cereza" width="20" height="20" x="-10" y="-10" transform="translate(83.4,530.9)"/>
<use href="#cereza" width="20" height="20" x="-10" y="-10" transform="translate(93.8,521.6)"/>
<use href="#hoja" width="92" height="46" y="-23" transform="translate(49.9,482.4) rotate(-94.4)"/>
<use href="#hoja" width="69" height="34" y="-17" transform="translate(17.7,434.6) rotate(-158.0)"/></g></g></svg>